<?xml version="1.0" encoding="UTF-8" standalone="no" ?>
<!DOCTYPE svg PUBLIC "-//W3C//DTD SVG 1.1//EN" "http://www.w3.org/Graphics/SVG/1.1/DTD/svg11.dtd">
<svg xmlns="http://www.w3.org/2000/svg" xmlns:xlink="http://www.w3.org/1999/xlink" version="1.1" width="1080" height="1080" viewBox="0 0 1080 1080" xml:space="preserve">
<desc>Created with Fabric.js 5.2.4</desc>
<defs>
</defs>
<g transform="matrix(1 0 0 1 540 540)" id="afadedd4-3b1e-4022-a69a-c90907542221"  >
<rect style="stroke: none; stroke-width: 1; stroke-dasharray: none; stroke-linecap: butt; stroke-dashoffset: 0; stroke-linejoin: miter; stroke-miterlimit: 4; fill: rgb(255,255,255); fill-rule: nonzero; opacity: 1; visibility: hidden;" vector-effect="non-scaling-stroke"  x="-540" y="-540" rx="0" ry="0" width="1080" height="1080" />
</g>
<g transform="matrix(1 0 0 1 540 540)" id="631f913f-b606-4141-b3d2-3fb756c62e82"  >
</g>
<g transform="matrix(1 0 0 1 540 540)"  >
<g style="" vector-effect="non-scaling-stroke"   >
		<g transform="matrix(18.63 0 0 -18.63 269.12 2.58)" id="path14357"  >
<path style="stroke: none; stroke-width: 1; stroke-dasharray: none; stroke-linecap: butt; stroke-dashoffset: 0; stroke-linejoin: miter; stroke-miterlimit: 4; fill: rgb(203,203,203); fill-rule: nonzero; opacity: 1;" vector-effect="non-scaling-stroke"  transform=" translate(3.25, 0.02)" d="M 0 0 L -6.494 -0.047 L -0.3719999999999999 -0.047 C -0.125 -0.054 -0.004 -0.006 0 0" stroke-linecap="round" />
</g>
		<g transform="matrix(18.63 0 0 -18.63 0 0)" id="path14361"  >
<path style="stroke: none; stroke-width: 1; stroke-dasharray: none; stroke-linecap: butt; stroke-dashoffset: 0; stroke-linejoin: miter; stroke-miterlimit: 4; fill: rgb(203,203,203); fill-rule: nonzero; opacity: 1;" vector-effect="non-scaling-stroke"  transform=" translate(17.75, 0.83)" d="M 0 0 C -0.007 0.12 -0.023 0.16 -0.106 0.235 C -0.227 0.339 -0.313 0.371 -0.435 0.371 L -8.581 0.371 C -9.182 0.348 -9.341 0.202 -9.45 -0.232 L -9.427 -4.890000000000001 C -9.424 -5.174 -9.344 -5.352 -9.19 -5.497000000000001 C -9.014 -5.6530000000000005 -8.801 -5.734000000000001 -8.485 -5.735000000000001 L 0.7520000000000007 -5.735000000000001 C 0.8180000000000007 -5.734000000000001 0.8860000000000007 -5.734000000000001 0.9470000000000007 -5.734000000000001 C 1.542 -5.735 2.323 -5.757 2.86 -6.281 C 3.146 -6.566 3.292 -6.95 3.292 -7.382 C 3.292 -7.909 3.165 -8.325 2.87 -8.622 C 2.436 -9.041 1.853 -9.065 1.171 -9.067 L 0.913 -9.067 L 0.605 -9.067 L -9.036 -9.067 C -11.408 -9.065 -12.75 -7.744 -12.754 -5.416 L -12.75 0.08899999999999952 L -12.754 0.16899999999999954 C -12.758 1.2639999999999996 -12.464 2.1439999999999997 -11.862 2.7509999999999994 C -11.214 3.4069999999999996 -10.275 3.7029999999999994 -9.036 3.7029999999999994 L -0.45 3.7029999999999994 C 1.978 3.699 3.319 2.452 3.325 0.145 L 3.325 -0.748 C 3.319 -3.041 1.907 -4.397 -0.45 -4.376 L -6.577 -4.376 C -6.923 -4.3740000000000006 -7.705 -4.390000000000001 -8.263 -3.838 C -8.568999999999999 -3.533 -8.722 -3.1180000000000003 -8.722 -2.6470000000000002 C -8.722 -2.2460000000000004 -8.571 -1.8710000000000002 -8.288 -1.5950000000000002 C -7.651 -0.9820000000000002 -6.673 -1.0010000000000003 -6.557 -0.9940000000000002 L -0.06300000000000061 -0.9470000000000002 C 0.014999999999999389 -0.8870000000000002 0.005999999999999395 -0.8680000000000002 0.009999999999999384 -0.8560000000000002 z M -14.494 -6.046 C -14.494 -7.987 -15.584 -9.065000000000001 -17.551 -9.067 L -27.384 -9.065 C -29.349 -9.061 -30.448 -7.978 -30.451 -6.02 L -30.451 5.674 C -30.451 6.134 -30.27 6.557 -29.936 6.888 C -29.601 7.226 -29.175 7.402 -28.712 7.402 C -28.253 7.406 -27.835 7.227 -27.515 6.894 C -27.194 6.567 -27.026 6.158 -27.034 5.713 L -27.012999999999998 -4.816999999999999 C -27.011 -5.109999999999999 -26.929 -5.291999999999999 -26.761999999999997 -5.452999999999999 C -26.572999999999997 -5.616 -26.355999999999998 -5.699 -26.019999999999996 -5.699 L -18.858999999999995 -5.704 C -18.546999999999993 -5.699 -18.326999999999995 -5.616 -18.146999999999995 -5.452999999999999 C -17.971999999999994 -5.292 -17.895999999999994 -5.1129999999999995 -17.892999999999994 -4.816999999999999 L -17.910999999999994 -0.35499999999999954 C -17.912999999999993 -0.059999999999999554 -17.990999999999993 0.14000000000000046 -18.150999999999993 0.3020000000000005 C -18.32699999999999 0.47000000000000053 -18.522999999999993 0.5510000000000005 -18.834999999999994 0.5550000000000005 L -24.178999999999995 0.5550000000000005 L -24.248999999999995 0.5550000000000005 L -24.469999999999995 0.5550000000000005 C -24.932999999999996 0.5510000000000005 -25.351999999999997 0.7280000000000004 -25.686999999999994 1.0650000000000004 C -26.019999999999992 1.3980000000000004 -26.201999999999995 1.8180000000000005 -26.195999999999994 2.2810000000000006 C -26.201999999999995 2.7430000000000008 -26.024999999999995 3.1640000000000006 -25.690999999999995 3.4910000000000005 C -25.324999999999996 3.8410000000000006 -24.875999999999994 3.8900000000000006 -24.509999999999994 3.8900000000000006 L -17.478999999999996 3.884000000000001 C -15.539999999999996 3.8810000000000007 -14.467999999999996 2.827000000000001 -14.489999999999995 0.9240000000000008 z M -33.09 -5.543 C -33.09 -7.128 -34.374 -8.411 -35.962 -8.411 C -37.544000000000004 -8.411 -38.833000000000006 -7.128 -38.833000000000006 -5.542999999999999 C -38.833000000000006 -3.9559999999999995 -37.544000000000004 -2.6679999999999993 -35.962 -2.6679999999999993 C -34.374 -2.6679999999999993 -33.09 -3.9559999999999995 -33.085 -5.542999999999999 z M -17.755000000000003 26.005 C -32.574000000000005 26.005 -44.59 13.988 -44.59 -0.8309999999999995 C -44.59 -15.655 -32.574000000000005 -27.669999999999998 -17.755000000000003 -27.669999999999998 C -2.9330000000000034 -27.669999999999998 9.081999999999997 -15.654999999999998 9.081999999999997 -0.8309999999999995 C 9.081999999999997 13.988000000000001 -2.9330000000000034 26.005 -17.755000000000003 26.005" stroke-linecap="round" />
</g>
</g>
</g>
<g transform="matrix(NaN NaN NaN NaN 0 0)"  >
<g style=""   >
</g>
</g>
<g transform="matrix(NaN NaN NaN NaN 0 0)"  >
<g style=""   >
</g>
</g>
</svg>